<?xml version="1.0" encoding="UTF-8" standalone="no"?>
<!-- Generator: Adobe Illustrator 18.1.1, SVG Export Plug-In . SVG Version: 6.00 Build 0)  -->

<svg
   xmlns:dc="http://purl.org/dc/elements/1.1/"
   xmlns:cc="http://creativecommons.org/ns#"
   xmlns:rdf="http://www.w3.org/1999/02/22-rdf-syntax-ns#"
   xmlns:svg="http://www.w3.org/2000/svg"
   xmlns="http://www.w3.org/2000/svg"
   xmlns:sodipodi="http://sodipodi.sourceforge.net/DTD/sodipodi-0.dtd"
   xmlns:inkscape="http://www.inkscape.org/namespaces/inkscape"
   version="1.1"
   id="Layer_1"
   x="0px"
   y="0px"
   viewBox="0 0 318.31695 387.60169"
   enable-background="new 0 0 756 576"
   xml:space="preserve"
   inkscape:version="0.48.5 r10040"
   width="100%"
   height="100%"
   sodipodi:docname="share-create.svg"><metadata
     id="metadata15"><rdf:RDF><cc:Work
         rdf:about=""><dc:format>image/svg+xml</dc:format><dc:type
           rdf:resource="http://purl.org/dc/dcmitype/StillImage" /><dc:title></dc:title></cc:Work></rdf:RDF></metadata><defs
     id="defs13" /><sodipodi:namedview
     pagecolor="#ffffff"
     bordercolor="#666666"
     borderopacity="1"
     objecttolerance="10"
     gridtolerance="10"
     guidetolerance="10"
     inkscape:pageopacity="0"
     inkscape:pageshadow="2"
     inkscape:window-width="1232"
     inkscape:window-height="747"
     id="namedview11"
     showgrid="false"
     inkscape:zoom="0.81944444"
     inkscape:cx="-3.3133531"
     inkscape:cy="253.7167"
     inkscape:window-x="0"
     inkscape:window-y="0"
     inkscape:window-maximized="0"
     inkscape:current-layer="Layer_1"
     fit-margin-top="0"
     fit-margin-left="0"
     fit-margin-right="0"
     fit-margin-bottom="0" /><g
     id="g2992"
     transform="matrix(2.8095053,0,0,2.3420042,-438.56378,-306.56835)"
     style="fill:#fffffe;fill-opacity:1"><g
       id="g3"
       style="fill:#fffffe;fill-opacity:1"><path
         style="fill:#fffffe;fill-opacity:1"
         d="m 165.2,205.2 c 10.46667,0 20.93333,0 31.4,0 0,-3.06667 0,-6.13333 0,-9.2 -13.5,0 -27,0 -40.5,0 0,33.46667 0,66.93333 0,100.4 37.76667,0 75.53333,0 113.3,0 0,-33.46667 0,-66.93333 0,-100.4 -13.53333,0 -27.06667,0 -40.6,0 0,3.06667 0,6.13333 0,9.2 10.46667,0 20.93333,0 31.4,0 0,27.33333 0,54.66667 0,82 -31.66667,0 -63.33333,0 -95,0 0,-27.33333 0,-54.66667 0,-82 z"
         id="polygon5"
         inkscape:connector-curvature="0" /></g><g
       id="g7"
       style="fill:#fffffe;fill-opacity:1"><path
         d="m 218.9,254.3 c 0,-33.26667 0,-66.53333 0,-99.8 10.43333,10.43333 20.86667,20.86667 31.3,31.3 2.9,-2.9 5.8,-5.8 8.7,-8.7 -15.4,-15.4 -30.8,-30.8 -46.2,-46.2 -15.4,15.4 -30.8,30.8 -46.2,46.2 2.93333,2.9 5.86667,5.8 8.8,8.7 10.43333,-10.43333 20.86667,-20.86667 31.3,-31.3 0,33.26667 0,66.53333 0,99.8 4.1,0 8.2,0 12.3,0 z"
         id="polygon9"
         inkscape:connector-curvature="0"
         style="fill:#fffffe;fill-opacity:1" /></g></g></svg>